<svg xmlns="http://www.w3.org/2000/svg" width="222.883" height="53.805" viewBox="0 0 222.883 53.805"><defs><style>.a{fill:#0068e0;}</style></defs><g transform="translate(0 0.001)"><g transform="translate(0 -0.001)"><g transform="translate(0 0)"><g transform="translate(61.648 0.791)"><path d="M312,32.453V26.13h11.065a8.322,8.322,0,0,0,3.082-.613,7.546,7.546,0,0,0,2.509-1.7,7.707,7.707,0,0,0,1.7-2.509,7.446,7.446,0,0,0,.612-3.082,8.3,8.3,0,0,0-.613-3.082,7.508,7.508,0,0,0-1.7-2.509,7.706,7.706,0,0,0-2.509-1.7,7.477,7.477,0,0,0-3.082-.613H312V4h11.065A14.013,14.013,0,0,1,328.6,5.126a13.457,13.457,0,0,1,2.411,1.3,14.857,14.857,0,0,1,2.114,1.739,13.834,13.834,0,0,1,1.739,2.114,14.227,14.227,0,0,1,1.3,13.476,13.456,13.456,0,0,1-1.3,2.411,14.723,14.723,0,0,1-1.739,2.114,13.729,13.729,0,0,1-2.114,1.739,14.282,14.282,0,0,1-7.943,2.43Z" transform="translate(-312 -4)"/></g><path class="a" d="M47.422,32.453,37.938,11.9l-9.484,20.55H22.13L34.776,4H41.1L53.745,32.453Zm-37.938,0V10.323H0V4H25.292v6.323H15.807v22.13Z" transform="translate(0 -3.209)"/><path d="M745.484,32.453V10.323H736V4h25.292v6.323h-9.484v22.13Z" transform="translate(-590.573 -3.209)"/><path d="M848,32.453,860.646,4h6.323l12.646,28.453h-6.323L863.807,11.9l-9.484,20.55Z" transform="translate(-680.443 -3.209)"/><rect width="6.323" height="28.453" transform="translate(91.682 0.791)"/><rect width="6.323" height="28.453" transform="translate(134.362 0.791)"/><path d="M1024,32.453V4h6.323V26.13h14.227v6.323Z" transform="translate(-821.667 -3.209)"/><path d="M529.167,28.848a16.048,16.048,0,0,1-2.549-1.383,14.069,14.069,0,0,1-2.213-1.838,15.16,15.16,0,0,1-1.838-2.213,16.052,16.052,0,0,1-1.383-2.549,15.017,15.017,0,0,1,0-11.7,16.047,16.047,0,0,1,1.383-2.549,13.977,13.977,0,0,1,1.838-2.213,15.156,15.156,0,0,1,2.213-1.838,16.047,16.047,0,0,1,2.549-1.383,15.017,15.017,0,0,1,11.7,0,15.963,15.963,0,0,1,2.549,1.383,14.213,14.213,0,0,1,1.818,1.442l-4.446,4.446a8.73,8.73,0,0,0-9.168-1.482,8.548,8.548,0,0,0-2.786,1.877,8.722,8.722,0,0,0-1.877,9.583,8.58,8.58,0,0,0,1.877,2.786,8.722,8.722,0,0,0,9.583,1.877,8.437,8.437,0,0,0,2.134-1.284v-6.8h6.323v9.228a11.985,11.985,0,0,1-1.245,1.4,15.156,15.156,0,0,1-2.213,1.838,15.964,15.964,0,0,1-2.549,1.383,14.872,14.872,0,0,1-5.849,1.186A15.258,15.258,0,0,1,529.167,28.848Z" transform="translate(-417.252 0.001)"/><path d="M0,189H1.664v12.164H0Zm9.814,2.869a3.484,3.484,0,0,1,2.662,1.02,4.16,4.16,0,0,1,.988,2.974v5.3h-1.6v-5.116a2.893,2.893,0,0,0-.624-2.015,2.254,2.254,0,0,0-1.778-.688,2.681,2.681,0,0,0-2.037.79,3.168,3.168,0,0,0-.749,2.266v4.742h-1.6v-9.19H6.613v1.383a3.219,3.219,0,0,1,1.31-1.1,4.21,4.21,0,0,1,1.871-.375Zm11.767,8.753a2.213,2.213,0,0,1-.873.478,3.7,3.7,0,0,1-1.059.166,2.718,2.718,0,0,1-2.059-.747,2.967,2.967,0,0,1-.727-2.142v-5.052h-1.5v-1.371h1.5V189.94h1.6v2.015H21v1.373H18.463v4.989a1.705,1.705,0,0,0,.354,1.146,1.352,1.352,0,0,0,1.018.4,1.836,1.836,0,0,0,1.249-.437Zm9.793-4.013a3.529,3.529,0,0,1-.041.5H24.179a2.964,2.964,0,0,0,1.02,1.954,3.264,3.264,0,0,0,2.162.749,3.13,3.13,0,0,0,2.537-1.122l.873,1.081a3.77,3.77,0,0,1-1.5,1.1,4.667,4.667,0,0,1-2,.373,4.851,4.851,0,0,1-2.474-.6,4.177,4.177,0,0,1-1.664-1.685,5.335,5.335,0,0,1,0-4.843,4.394,4.394,0,0,1,1.581-1.685,4.582,4.582,0,0,1,2.266-.593,4.07,4.07,0,0,1,2.247.593,3.879,3.879,0,0,1,1.537,1.685A4.845,4.845,0,0,1,31.374,196.611Zm-4.347-3.347a2.715,2.715,0,0,0-1.913.729,3.029,3.029,0,0,0-.915,1.913h5.657a3.075,3.075,0,0,0-.915-1.913,2.713,2.713,0,0,0-1.913-.729Zm6.762-4.989h1.6v12.891h-1.6Zm4.823,0h1.6v12.891h-1.6Zm4.823,3.681h1.6v9.212h-1.6Zm.81-1.766a1.087,1.087,0,0,1-.771-1.849.988.988,0,0,1,.771-.312,1.069,1.069,0,0,1,.769.312,1.051,1.051,0,0,1,.312.747,1.118,1.118,0,0,1-.312.79A1.164,1.164,0,0,1,44.245,190.189Zm12.448,1.766v7.963a4.9,4.9,0,0,1-1.142,3.576,4.66,4.66,0,0,1-3.43,1.166,8.3,8.3,0,0,1-2.371-.354,4.4,4.4,0,0,1-1.83-1.02L48.688,202a4.274,4.274,0,0,0,1.518.873,5.244,5.244,0,0,0,1.871.312,3.009,3.009,0,0,0,2.286-.771,3.234,3.234,0,0,0,.749-2.328v-.729a3.642,3.642,0,0,1-1.393,1.061,4.347,4.347,0,0,1-1.788.354,4.663,4.663,0,0,1-2.286-.561,4.183,4.183,0,0,1-1.6-1.581,4.94,4.94,0,0,1,0-4.657,4.169,4.169,0,0,1,1.6-1.581,4.879,4.879,0,0,1,2.286-.561,4.655,4.655,0,0,1,1.851.373,3.731,3.731,0,0,1,1.413,1.122v-1.371Zm-4.568,7.358a3.4,3.4,0,0,0,1.559-.373,2.766,2.766,0,0,0,1.081-1.061,3.138,3.138,0,0,0,.4-1.559,2.8,2.8,0,0,0-.852-2.162,3.31,3.31,0,0,0-4.387,0,2.875,2.875,0,0,0-.852,2.162,3.138,3.138,0,0,0,.4,1.559,2.65,2.65,0,0,0,1.081,1.061A3.162,3.162,0,0,0,52.125,199.314Zm15.78-2.7a3.529,3.529,0,0,1-.041.5H60.71a2.964,2.964,0,0,0,1.02,1.954,3.264,3.264,0,0,0,2.162.749,3.13,3.13,0,0,0,2.537-1.122l.873,1.081a3.754,3.754,0,0,1-1.5,1.1,4.669,4.669,0,0,1-2,.375,4.87,4.87,0,0,1-2.474-.6,4.191,4.191,0,0,1-1.664-1.685,5.335,5.335,0,0,1,0-4.843,4.394,4.394,0,0,1,1.581-1.685,4.56,4.56,0,0,1,2.266-.593,4.07,4.07,0,0,1,2.247.593,3.879,3.879,0,0,1,1.537,1.685,4.865,4.865,0,0,1,.6,2.494Zm-4.347-3.347a2.715,2.715,0,0,0-1.913.729,3.029,3.029,0,0,0-.915,1.913h5.661a3.084,3.084,0,0,0-.915-1.915,2.719,2.719,0,0,0-1.913-.727Zm11.46-1.393a3.481,3.481,0,0,1,2.662,1.02,4.172,4.172,0,0,1,1,2.974v5.3h-1.6v-5.116a2.884,2.884,0,0,0-.624-2.015,2.266,2.266,0,0,0-1.763-.7,2.675,2.675,0,0,0-2.037.79A3.177,3.177,0,0,0,71.9,196.4v4.742H70.3v-9.182h1.539v1.383a3.2,3.2,0,0,1,1.31-1.1,4.149,4.149,0,0,1,1.869-.375Zm11.769,8.753a2.227,2.227,0,0,1-.873.478,3.719,3.719,0,0,1-1.061.166,2.719,2.719,0,0,1-2.057-.747,2.967,2.967,0,0,1-.729-2.142v-5.052h-1.5v-1.371h1.5V189.94h1.6v2.015H86.2v1.373H83.664v4.989a1.705,1.705,0,0,0,.354,1.144,1.351,1.351,0,0,0,1.02.4,1.836,1.836,0,0,0,1.247-.437ZM96.12,190.5H92.129v-1.508h9.631v1.518H97.768v10.634H96.124Zm8.712,2.994a2.916,2.916,0,0,1,1.227-1.227,4.319,4.319,0,0,1,1.976-.415v1.622a2.371,2.371,0,0,0-.373-.022,2.625,2.625,0,0,0-2.039.81,3.273,3.273,0,0,0-.747,2.308v4.6h-1.6v-9.21h1.537Zm8.566-1.622a3.876,3.876,0,0,1,2.808.937,3.738,3.738,0,0,1,.976,2.806v5.552h-1.518v-1.227a2.517,2.517,0,0,1-1.144.978,4.23,4.23,0,0,1-1.747.332,3.6,3.6,0,0,1-2.371-.749,2.46,2.46,0,0,1-.893-1.954,2.515,2.515,0,0,1,.852-1.954,4,4,0,0,1,2.7-.749h2.527v-.33a2.149,2.149,0,0,0-.593-1.644,2.5,2.5,0,0,0-1.778-.581,4.347,4.347,0,0,0-1.537.271,3.8,3.8,0,0,0-1.269.727l-.666-1.247a4.893,4.893,0,0,1,1.622-.873,6.023,6.023,0,0,1,2.017-.292Zm-.373,8.1a2.834,2.834,0,0,0,1.581-.415,2.383,2.383,0,0,0,.956-1.205v-1.288h-2.456c-1.352,0-2.037.478-2.037,1.435a1.28,1.28,0,0,0,.52,1.1,2.509,2.509,0,0,0,1.435.381Zm12.018-8.1a3.481,3.481,0,0,1,2.662,1.02,4.172,4.172,0,0,1,1,2.974v5.3h-1.6v-5.116a2.837,2.837,0,0,0-.624-2.015,2.294,2.294,0,0,0-1.768-.7,2.675,2.675,0,0,0-2.037.79,3.2,3.2,0,0,0-.757,2.274v4.742h-1.6v-9.19h1.539v1.383a3.2,3.2,0,0,1,1.308-1.1,4.149,4.149,0,0,1,1.871-.375Zm9.334,9.4a7,7,0,0,1-2.079-.31,4.4,4.4,0,0,1-1.559-.771l.666-1.33a4.706,4.706,0,0,0,1.413.686,5.73,5.73,0,0,0,1.683.271c1.383,0,2.1-.415,2.1-1.249a.765.765,0,0,0-.29-.664,1.893,1.893,0,0,0-.707-.354,10.432,10.432,0,0,0-1.205-.249,13.531,13.531,0,0,1-1.747-.4,2.726,2.726,0,0,1-1.164-.771,2.248,2.248,0,0,1-.478-1.518,2.44,2.44,0,0,1,1-2.017,4.376,4.376,0,0,1,2.683-.747,7.206,7.206,0,0,1,1.766.227,5.281,5.281,0,0,1,1.456.6l-.688,1.33a4.392,4.392,0,0,0-2.535-.727,2.8,2.8,0,0,0-1.539.354,1.057,1.057,0,0,0-.541.915.883.883,0,0,0,.292.705,1.7,1.7,0,0,0,.747.375c.292.083.707.166,1.249.271a11.979,11.979,0,0,1,1.725.415,2.547,2.547,0,0,1,1.122.747,2.081,2.081,0,0,1,.458,1.456,2.393,2.393,0,0,1-1.02,2A4.773,4.773,0,0,1,134.376,201.268Zm9.212-11.725q-1.435,0-1.435,1.62v.79h2.557v1.373h-2.539v7.838h-1.6v-7.838h-1.5v-1.371h1.5v-.81a2.927,2.927,0,0,1,.771-2.162,2.885,2.885,0,0,1,2.14-.79,3.359,3.359,0,0,1,1,.146,2.158,2.158,0,0,1,.79.4L144.793,190a1.6,1.6,0,0,0-1.207-.458Zm6.487,11.725a4.509,4.509,0,0,1-2.371-.593,4.262,4.262,0,0,1-1.644-1.684,5.382,5.382,0,0,1,0-4.865,4.213,4.213,0,0,1,1.644-1.664,4.717,4.717,0,0,1,2.371-.6,4.4,4.4,0,0,1,2.349.6,4.317,4.317,0,0,1,1.622,1.664,5.382,5.382,0,0,1,0,4.865,4.369,4.369,0,0,1-1.622,1.683A4.791,4.791,0,0,1,150.074,201.268Zm0-1.454a2.847,2.847,0,0,0,2.569-1.559,3.393,3.393,0,0,0,.375-1.683,3.77,3.77,0,0,0-.375-1.705,2.679,2.679,0,0,0-1.059-1.144,2.824,2.824,0,0,0-1.518-.4,2.964,2.964,0,0,0-1.517.4,2.683,2.683,0,0,0-1.061,1.144,3.671,3.671,0,0,0-.4,1.705,3.4,3.4,0,0,0,.4,1.683,2.82,2.82,0,0,0,1.061,1.144,2.99,2.99,0,0,0,1.523.415Zm8.5-6.323a2.917,2.917,0,0,1,1.227-1.227,4.319,4.319,0,0,1,1.976-.415v1.622a2.369,2.369,0,0,0-.373-.022,2.617,2.617,0,0,0-2.037.81,3.283,3.283,0,0,0-.749,2.308v4.6h-1.6v-9.208h1.537Zm16.4-1.622a3.532,3.532,0,0,1,2.64,1,4.152,4.152,0,0,1,.988,2.994v5.3H177v-5.114a2.989,2.989,0,0,0-.583-2.015,2.111,2.111,0,0,0-1.683-.7,2.444,2.444,0,0,0-1.934.79,3.257,3.257,0,0,0-.707,2.266v4.742h-1.6V196.03a2.991,2.991,0,0,0-.581-2.017,2.109,2.109,0,0,0-1.685-.686,2.442,2.442,0,0,0-1.932.79,3.254,3.254,0,0,0-.707,2.266v4.742h-1.6v-9.17h1.539v1.383a2.907,2.907,0,0,1,1.267-1.083,4.078,4.078,0,0,1,1.778-.373,3.707,3.707,0,0,1,1.83.437,3,3,0,0,1,1.227,1.269,3.234,3.234,0,0,1,1.383-1.247,3.626,3.626,0,0,1,1.952-.46Zm9.939,0a3.877,3.877,0,0,1,2.806.937,3.739,3.739,0,0,1,.978,2.806v5.552h-1.518v-1.225a2.517,2.517,0,0,1-1.144.978,4.236,4.236,0,0,1-1.747.332,3.594,3.594,0,0,1-2.371-.749,2.456,2.456,0,0,1-.9-1.954,2.511,2.511,0,0,1,.854-1.954,3.992,3.992,0,0,1,2.7-.749h2.543v-.33a2.149,2.149,0,0,0-.593-1.644,2.467,2.467,0,0,0-1.766-.581,4.347,4.347,0,0,0-1.539.271,3.835,3.835,0,0,0-1.269.727l-.664-1.247a4.882,4.882,0,0,1,1.62-.873,6.126,6.126,0,0,1,2.017-.292Zm-.354,8.1a2.837,2.837,0,0,0,1.581-.415,2.393,2.393,0,0,0,.956-1.205v-1.29h-2.444c-1.352,0-2.037.478-2.037,1.435a1.282,1.282,0,0,0,.52,1.1,2.446,2.446,0,0,0,1.435.375Zm12.251.644a2.219,2.219,0,0,1-.871.478,3.719,3.719,0,0,1-1.061.166,2.718,2.718,0,0,1-2.059-.749,2.962,2.962,0,0,1-.727-2.14v-5.043h-1.5v-1.371h1.5V189.94h1.6v2.015h2.539v1.373h-2.537v4.989a1.717,1.717,0,0,0,.354,1.144,1.351,1.351,0,0,0,1.02.4,1.835,1.835,0,0,0,1.247-.437Zm2.126-8.658h1.6v9.212h-1.6Zm.79-1.788a1.089,1.089,0,0,1-.771-1.849.988.988,0,0,1,.769-.312,1.065,1.065,0,0,1,.769.312,1.053,1.053,0,0,1,.312.749,1.114,1.114,0,0,1-.312.79.964.964,0,0,1-.769.31Zm7.817,11.1a4.519,4.519,0,0,1-2.371-.593,4.27,4.27,0,0,1-1.642-1.683,5.371,5.371,0,0,1,0-4.865,4.2,4.2,0,0,1,1.642-1.664,4.716,4.716,0,0,1,2.371-.6,4.4,4.4,0,0,1,2.349.6,4.29,4.29,0,0,1,1.622,1.664,5.371,5.371,0,0,1,0,4.865,4.369,4.369,0,0,1-1.622,1.683,4.792,4.792,0,0,1-2.349.591Zm0-1.454a2.853,2.853,0,0,0,2.579-1.559,3.4,3.4,0,0,0,.373-1.705,3.6,3.6,0,0,0-.373-1.683,2.7,2.7,0,0,0-1.061-1.144,2.824,2.824,0,0,0-1.518-.4,2.964,2.964,0,0,0-1.518.4,2.7,2.7,0,0,0-1.061,1.144,3.663,3.663,0,0,0-.4,1.683,3.571,3.571,0,0,0,.4,1.705,2.82,2.82,0,0,0,1.061,1.144,2.982,2.982,0,0,0,1.516.415Zm11.686-7.943a3.483,3.483,0,0,1,2.662,1.018,4.16,4.16,0,0,1,.988,2.974v5.3h-1.6v-5.114a2.884,2.884,0,0,0-.624-2.015,2.248,2.248,0,0,0-1.766-.688,2.682,2.682,0,0,0-2.039.79,3.167,3.167,0,0,0-.747,2.266v4.742h-1.6v-9.19h1.537v1.383a3.218,3.218,0,0,1,1.31-1.1,4.129,4.129,0,0,1,1.871-.375Z" transform="translate(0 -150.856)"/></g></g></g></svg>